<svg xmlns="http://www.w3.org/2000/svg" width="23.016" height="23.016" viewBox="0 0 23.016 23.016">
  <defs>
    <style>
      .cls-1 {
        fill: #fff;
      }
    </style>
  </defs>
  <g id="instagram" transform="translate(-301.176 -123.431)">
    <path id="Path_3355" data-name="Path 3355" class="cls-1" d="M317.145,146.447h-8.923a7.054,7.054,0,0,1-7.046-7.046v-8.923a7.054,7.054,0,0,1,7.046-7.046h8.923a7.055,7.055,0,0,1,7.047,7.046V139.4A7.054,7.054,0,0,1,317.145,146.447Zm-8.923-21.292a5.329,5.329,0,0,0-5.323,5.323V139.4a5.329,5.329,0,0,0,5.323,5.323h8.923a5.329,5.329,0,0,0,5.323-5.323v-8.923a5.329,5.329,0,0,0-5.323-5.323Z"/>
    <path id="Path_3356" data-name="Path 3356" class="cls-1" d="M326.028,154.1a5.822,5.822,0,1,1,5.822-5.822A5.828,5.828,0,0,1,326.028,154.1Zm0-9.879a4.057,4.057,0,1,0,4.057,4.057A4.062,4.062,0,0,0,326.028,144.226Z" transform="translate(-13.344 -13.344)"/>
    <path id="Path_3357" data-name="Path 3357" class="cls-1" d="M359.254,136.784a1.516,1.516,0,1,1-1.516-1.516A1.516,1.516,0,0,1,359.254,136.784Z" transform="translate(-38.599 -8.3)"/>
  </g>
</svg>
