<svg xmlns="http://www.w3.org/2000/svg" width="25.185" height="17.822" viewBox="0 0 25.185 17.822">
  <defs>
    <style>
      .cls-1 {
        fill: #fff;
      }
    </style>
  </defs>
  <path id="youtube" class="cls-1" d="M111.749,297.462c-.01-.3-.026-.6-.049-.894a6.556,6.556,0,0,0-1.071-3.718,4.077,4.077,0,0,0-2.869-1.178c-1.329-.15-2.664-.241-4-.292-2.707-.1-5.416-.043-8.123.017-1.391.031-2.782.062-4.169.172-1.7.135-3.454.385-4.247,2.087-.712,1.527-.623,3.466-.633,5.11-.008,1.473-.013,2.947.046,4.42.077,1.911.19,4.4,2.253,5.238a11.879,11.879,0,0,0,3.607.624c1.247.081,2.5.071,3.745.09,2.618.039,5.236-.051,7.853-.1a17.77,17.77,0,0,0,5.423-.65c1.5-.512,1.894-2.14,2.1-3.551a29.382,29.382,0,0,0,.148-4.238C111.757,299.55,111.785,298.505,111.749,297.462Zm-15.126,6.577v-7.662l6.521,3.83Z" transform="translate(-86.583 -291.324)"/>
</svg>
