<svg xmlns="http://www.w3.org/2000/svg" width="24.668" height="19.71" viewBox="0 0 24.668 19.71">
    <g>
        <g>
            <path fill="#fff" fill-rule="evenodd" d="M24.668 1.07s-2.613.275-3.772.5A5.133 5.133 0 0 0 17.181 0a5.035 5.035 0 0 0-5.093 4.976 4.962 4.962 0 0 0 .132 1.132A14.543 14.543 0 0 1 1.73.91a4.885 4.885 0 0 0-.691 2.5A4.946 4.946 0 0 0 3.3 7.554 5.2 5.2 0 0 1 1 6.931V7a5 5 0 0 0 4.083 4.876 5.247 5.247 0 0 1-2.3.086 5.082 5.082 0 0 0 4.753 3.456A10.4 10.4 0 0 1 0 17.473a14.659 14.659 0 0 0 7.8 2.237A14.215 14.215 0 0 0 22.288 5.554c0-.217 0-.431-.015-.645.995-.7 1.712-2.839 2.395-3.839" transform="translate(-99 -2892) translate(99 2892)"/>
        </g>
    </g>
</svg>
